# xmcd CD database file
#
# Track frame offsets:
#	150
#	2725
#	16634
#	43343
#	59342
#	80810
#	105205
#	131277
#	155531
#	175506
#	201080
#	241406
#	261907
#
# Disc length: 3753 seconds
#
# Revision: 0
# Processed by: cddbd v1.5.2PL0 Copyright (c) Steve Scherf et al.
# Submitted via: CDex 1.51
#
DISCID=9d0ea70d
DTITLE=The South Austin Moonlighters - LIVE at the Saxon Pub
DYEAR=2012
DGENRE=Blues
TTITLE0=Introduction
TTITLE1=Loverman
TTITLE2=Night Train
TTITLE3=Holding You Tightly
TTITLE4=On Main Street
TTITLE5=Rollin' Man
TTITLE6=To Love Somebody
TTITLE7=Lawdy Miss Clawdy
TTITLE8=29 Miles
TTITLE9=Old Engine
TTITLE10=Last Time
TTITLE11=One More Time
TTITLE12=Moonlight Ride
EXTD=YEAR: 2012
EXTT0=
EXTT1=
EXTT2=
EXTT3=
EXTT4=
EXTT5=
EXTT6=
EXTT7=
EXTT8=
EXTT9=
EXTT10=
EXTT11=
EXTT12=
PLAYORDER=
